<svg xmlns="http://www.w3.org/2000/svg" width="1200" height="800" viewBox="0 0 1200 800" role="img" aria-labelledby="title desc">
<title id="title">Liaison RM Today dashboard</title><desc id="desc">Desktop dashboard showing reason-based relationship review, event dietary readiness, follow-ups and local vault health.</desc>
<style>text{font-family:Inter,Segoe UI,Arial,sans-serif}.h{fill:#172033;font-weight:800}.m{fill:#5d687b}.card{fill:#fff;stroke:#d7deea}.nav{fill:#17233d}.badge{font-size:12px;font-weight:700}</style>
<rect width="1200" height="800" fill="#f4f6fb"/><rect class="nav" width="220" height="800"/><rect x="220" width="980" height="64" fill="#fff" stroke="#d7deea"/>
<rect x="18" y="16" width="38" height="38" rx="10" fill="#dfe7ff"/><text x="37" y="41" text-anchor="middle" font-weight="800" fill="#243f92">LR</text><text x="68" y="34" font-size="17" font-weight="800" fill="#fff">Liaison RM</text><text x="68" y="51" font-size="12" fill="#c7d2ed">Local workspace</text>
<rect x="14" y="88" width="192" height="42" rx="8" fill="#344a7a"/><rect x="14" y="88" width="4" height="42" rx="2" fill="#a9bcff"/><text x="34" y="115" fill="#fff" font-weight="700">Home</text><text x="34" y="165" fill="#fff">People</text><text x="34" y="215" fill="#fff">Events</text><text x="34" y="265" fill="#fff">Network</text><text x="34" y="315" fill="#fff">Settings</text>
<rect x="14" y="726" width="192" height="58" rx="8" fill="#263451" stroke="#5a6680"/><text x="28" y="752" fill="#fff" font-weight="700">Acme Dublin</text><text x="28" y="772" fill="#dbe3f5" font-size="12">Open-file vault · healthy</text>
<rect x="248" y="12" width="620" height="40" rx="9" fill="#fff" stroke="#d7deea"/><text x="266" y="38" class="m" font-size="14">Search people, notes and events…</text><rect x="886" y="12" width="128" height="40" rx="9" fill="#fff" stroke="#d7deea"/><text x="950" y="38" text-anchor="middle" class="h" font-size="14">+ Quick add</text>
<text x="248" y="104" class="h" font-size="30">Today</text><text x="248" y="130" class="m" font-size="14">Local relationship memory with readable files you control.</text>
<rect x="248" y="152" width="924" height="54" rx="9" fill="#fff0d7"/><text x="264" y="176" class="h" font-size="14">Concept prototype</text><text x="264" y="195" font-size="13">Review interaction and information architecture; this is not a production conformance claim.</text>
<g><rect class="card" x="248" y="224" width="216" height="112" rx="12"/><text x="264" y="250" class="m" font-size="13">People in workspace</text><text x="264" y="288" class="h" font-size="28">1,284</text><rect x="264" y="300" width="94" height="24" rx="12" fill="#e5f7ef"/><text x="311" y="317" text-anchor="middle" fill="#086b49" class="badge">12 updated</text></g>
<g><rect class="card" x="480" y="224" width="216" height="112" rx="12"/><text x="496" y="250" class="m" font-size="13">Follow-ups due</text><text x="496" y="288" class="h" font-size="28">18</text><rect x="496" y="300" width="104" height="24" rx="12" fill="#fff0d7"/><text x="548" y="317" text-anchor="middle" fill="#8a4b00" class="badge">7 need review</text></g>
<g><rect class="card" x="712" y="224" width="216" height="112" rx="12"/><text x="728" y="250" class="m" font-size="13">Friday event coverage</text><text x="728" y="288" class="h" font-size="28">91%</text><rect x="728" y="300" width="60" height="24" rx="12" fill="#fde8ed"/><text x="758" y="317" text-anchor="middle" fill="#a21d36" class="badge">4 gaps</text></g>
<g><rect class="card" x="944" y="224" width="228" height="112" rx="12"/><text x="960" y="250" class="m" font-size="13">Vault health</text><text x="960" y="288" class="h" font-size="28">Good</text><rect x="960" y="300" width="106" height="24" rx="12" fill="#e5f7ef"/><text x="1013" y="317" text-anchor="middle" fill="#086b49" class="badge">Indexed locally</text></g>
<rect class="card" x="248" y="354" width="620" height="314" rx="12"/><text x="266" y="384" class="h" font-size="20">Reason-based review</text>
<g><rect class="card" x="266" y="410" width="584" height="62" rx="9"/><circle cx="292" cy="441" r="21" fill="#e7edff"/><text x="292" y="446" text-anchor="middle" font-weight="800" fill="#29449a">AO</text><text x="322" y="436" class="h" font-size="15">Aisling O'Connor</text><text x="322" y="457" class="m" font-size="12">Open commitment · last interaction 31 days ago</text><rect x="760" y="429" width="70" height="24" rx="12" fill="#fff0d7"/><text x="795" y="446" text-anchor="middle" fill="#8a4b00" class="badge">Review</text></g>
<g><rect class="card" x="266" y="488" width="584" height="62" rx="9"/><circle cx="292" cy="519" r="21" fill="#e7edff"/><text x="292" y="524" text-anchor="middle" font-weight="800" fill="#29449a">RP</text><text x="322" y="514" class="h" font-size="15">Ravi Patel</text><text x="322" y="535" class="m" font-size="12">Confirm Friday catering preference</text><rect x="760" y="507" width="70" height="24" rx="12" fill="#e5f7ef"/><text x="795" y="524" text-anchor="middle" fill="#086b49" class="badge">Today</text></g>
<g><rect class="card" x="266" y="566" width="584" height="62" rx="9"/><circle cx="292" cy="597" r="21" fill="#e7edff"/><text x="292" y="602" text-anchor="middle" font-weight="800" fill="#29449a">LM</text><text x="322" y="592" class="h" font-size="15">Leah Murphy</text><text x="322" y="613" class="m" font-size="12">Birthday in 6 days · gift note available</text><rect x="744" y="585" width="86" height="24" rx="12" fill="#edf0f5"/><text x="787" y="602" text-anchor="middle" fill="#465266" class="badge">Upcoming</text></g>
<rect class="card" x="886" y="354" width="286" height="314" rx="12"/><text x="904" y="384" class="h" font-size="20">Event readiness</text><text x="904" y="420" class="h" font-size="15">All-hands lunch — Dublin</text><text x="904" y="474" class="h" font-size="36">41</text><text x="952" y="474" class="m" font-size="14">of 45 covered</text><rect x="904" y="494" width="242" height="8" rx="4" fill="#e7ebf2"/><rect x="904" y="494" width="220" height="8" rx="4" fill="#3157c8"/><rect x="904" y="526" width="120" height="24" rx="12" fill="#fde8ed"/><text x="964" y="543" text-anchor="middle" fill="#a21d36" class="badge">4 need follow-up</text><rect x="904" y="584" width="242" height="44" rx="9" fill="#3157c8"/><text x="1025" y="612" text-anchor="middle" fill="#fff" font-size="14" font-weight="700">Resolve coverage gaps</text>
</svg>
