<svg xmlns="http://www.w3.org/2000/svg" width="1200" height="800" viewBox="0 0 1200 800" role="img" aria-labelledby="title desc">
<title id="title">Liaison RM relationship network screen</title><desc id="desc">Desktop network graph with people, organization and event nodes, alongside filters and a visible semantic table alternative.</desc>
<style>text{font-family:Inter,Segoe UI,Arial,sans-serif}.h{fill:#172033;font-weight:800}.m{fill:#5d687b}.card{fill:#fff;stroke:#d7deea}.nav{fill:#17233d}.edge{stroke:#8b9ab9;stroke-width:2}.person{fill:#3157c8}.event{fill:#b27019}.org{fill:#086b49}</style>
<rect width="1200" height="800" fill="#f4f6fb"/><rect class="nav" width="220" height="800"/><rect x="220" width="980" height="64" fill="#fff" stroke="#d7deea"/><rect x="18" y="16" width="38" height="38" rx="10" fill="#dfe7ff"/><text x="37" y="41" text-anchor="middle" font-weight="800" fill="#243f92">LR</text><text x="68" y="34" font-size="17" font-weight="800" fill="#fff">Liaison RM</text><text x="68" y="51" font-size="12" fill="#c7d2ed">Local workspace</text><text x="34" y="115" fill="#fff">Home</text><text x="34" y="165" fill="#fff">People</text><text x="34" y="215" fill="#fff">Events</text><rect x="14" y="238" width="192" height="42" rx="8" fill="#344a7a"/><rect x="14" y="238" width="4" height="42" rx="2" fill="#a9bcff"/><text x="34" y="265" fill="#fff" font-weight="700">Network</text><text x="34" y="315" fill="#fff">Settings</text><rect x="14" y="726" width="192" height="58" rx="8" fill="#263451" stroke="#5a6680"/><text x="28" y="752" fill="#fff" font-weight="700">Acme Dublin</text><text x="28" y="772" fill="#dbe3f5" font-size="12">Open-file vault · healthy</text>
<rect x="248" y="12" width="620" height="40" rx="9" fill="#fff" stroke="#d7deea"/><text x="266" y="38" class="m" font-size="14">Search people, notes and events…</text><rect x="1018" y="12" width="154" height="40" rx="9" fill="#e7edff"/><text x="1095" y="38" text-anchor="middle" fill="#3157c8" font-size="14" font-weight="700">Graph · Table</text>
<text x="248" y="104" class="h" font-size="30">Relationship network</text><text x="248" y="130" class="m" font-size="14">Explore people, organizations and shared events; the table exposes equivalent information.</text>
<rect class="card" x="248" y="156" width="250" height="520" rx="12"/><text x="266" y="190" class="h" font-size="20">Filters</text><text x="266" y="226" class="m" font-size="11" font-weight="700">CENTER ON</text><rect x="266" y="238" width="214" height="40" rx="8" fill="#fff" stroke="#d7deea"/><text x="280" y="264" font-size="13">Aisling O'Connor</text><text x="266" y="314" class="m" font-size="11" font-weight="700">VISIBLE NODES</text><text x="266" y="340" font-size="13">✓ People</text><text x="266" y="366" font-size="13">✓ Organizations</text><text x="266" y="392" font-size="13">✓ Events</text><text x="266" y="428" class="m" font-size="11" font-weight="700">VISIBLE EDGES</text><text x="266" y="454" font-size="13">✓ Relationships</text><text x="266" y="480" font-size="13">✓ Memberships</text><text x="266" y="506" font-size="13">✓ Shared activities</text><rect x="266" y="552" width="214" height="96" rx="8" fill="#e7edff"/><text x="280" y="578" class="h" font-size="13">Selected: Aisling</text><text x="280" y="602" font-size="12">4 direct relationships</text><text x="280" y="623" font-size="12">12 shared activities</text>
<rect class="card" x="516" y="156" width="656" height="520" rx="12"/><text x="536" y="188" class="h" font-size="18">Graph view</text><rect x="1030" y="172" width="118" height="30" rx="8" fill="#fff" stroke="#d7deea"/><text x="1089" y="192" text-anchor="middle" fill="#3157c8" font-size="12" font-weight="700">Open as table</text>
<g transform="translate(0 15)"><line class="edge" x1="830" y1="365" x2="640" y2="235"/><line class="edge" x1="830" y1="365" x2="1030" y2="235"/><line class="edge" x1="830" y1="365" x2="655" y2="545"/><line class="edge" x1="830" y1="365" x2="1028" y2="535"/><line class="edge" x1="830" y1="365" x2="830" y2="555" stroke-dasharray="6 5"/><line class="edge" x1="640" y1="235" x2="830" y2="555" stroke-dasharray="6 5"/>
<g><circle cx="830" cy="365" r="43" class="person" stroke="#fff" stroke-width="5"/><text x="830" y="371" text-anchor="middle" fill="#fff" font-size="15" font-weight="800">AO</text><text x="830" y="430" text-anchor="middle" class="h" font-size="13">Aisling O'Connor</text></g><g><circle cx="640" cy="235" r="33" class="person" stroke="#fff" stroke-width="5"/><text x="640" y="241" text-anchor="middle" fill="#fff" font-weight="800">JC</text><text x="640" y="285" text-anchor="middle" class="h" font-size="12">Jordan Chen</text></g><g><circle cx="1030" cy="235" r="33" class="person" stroke="#fff" stroke-width="5"/><text x="1030" y="241" text-anchor="middle" fill="#fff" font-weight="800">RP</text><text x="1030" y="285" text-anchor="middle" class="h" font-size="12">Ravi Patel</text></g><g><circle cx="655" cy="545" r="33" class="person" stroke="#fff" stroke-width="5"/><text x="655" y="551" text-anchor="middle" fill="#fff" font-weight="800">LM</text><text x="655" y="595" text-anchor="middle" class="h" font-size="12">Leah Murphy</text></g><g><circle cx="1028" cy="535" r="37" class="event" stroke="#fff" stroke-width="5"/><text x="1028" y="541" text-anchor="middle" fill="#fff" font-weight="800">E</text><text x="1028" y="592" text-anchor="middle" class="h" font-size="12">All-hands lunch</text></g><g><rect x="770" y="535" width="120" height="48" rx="12" class="org" stroke="#fff" stroke-width="5"/><text x="830" y="565" text-anchor="middle" fill="#fff" font-weight="800">Acme</text></g></g>
<rect x="536" y="620" width="616" height="38" rx="8" fill="#f8f9fc"/><circle cx="556" cy="639" r="7" class="person"/><text x="570" y="644" class="m" font-size="11">Person</text><circle cx="638" cy="639" r="7" class="event"/><text x="652" y="644" class="m" font-size="11">Event</text><rect x="704" y="632" width="14" height="14" rx="3" class="org"/><text x="726" y="644" class="m" font-size="11">Organization</text><line x1="832" y1="639" x2="858" y2="639" class="edge"/><text x="866" y="644" class="m" font-size="11">Relationship</text><line x1="960" y1="639" x2="986" y2="639" class="edge" stroke-dasharray="5 4"/><text x="994" y="644" class="m" font-size="11">Membership/activity</text>
</svg>
