<svg xmlns="http://www.w3.org/2000/svg" width="1200" height="800" viewBox="0 0 1200 800" role="img" aria-labelledby="title desc">
<title id="title">Liaison RM People and profile screen</title><desc id="desc">Desktop people directory beside a tabbed personal profile with relationship status, last interaction and protected dietary context.</desc>
<style>text{font-family:Inter,Segoe UI,Arial,sans-serif}.h{fill:#172033;font-weight:800}.m{fill:#5d687b}.card{fill:#fff;stroke:#d7deea}.nav{fill:#17233d}.small{font-size:12px}.badge{font-size:11px;font-weight:700}</style>
<rect width="1200" height="800" fill="#f4f6fb"/><rect class="nav" width="220" height="800"/><rect x="220" width="980" height="64" fill="#fff" stroke="#d7deea"/><rect x="18" y="16" width="38" height="38" rx="10" fill="#dfe7ff"/><text x="37" y="41" text-anchor="middle" font-weight="800" fill="#243f92">LR</text><text x="68" y="34" font-size="17" font-weight="800" fill="#fff">Liaison RM</text><text x="68" y="51" font-size="12" fill="#c7d2ed">Local workspace</text>
<text x="34" y="115" fill="#fff">Home</text><rect x="14" y="138" width="192" height="42" rx="8" fill="#344a7a"/><rect x="14" y="138" width="4" height="42" rx="2" fill="#a9bcff"/><text x="34" y="165" fill="#fff" font-weight="700">People</text><text x="34" y="215" fill="#fff">Events</text><text x="34" y="265" fill="#fff">Network</text><text x="34" y="315" fill="#fff">Settings</text><rect x="14" y="726" width="192" height="58" rx="8" fill="#263451" stroke="#5a6680"/><text x="28" y="752" fill="#fff" font-weight="700">Acme Dublin</text><text x="28" y="772" fill="#dbe3f5" font-size="12">Open-file vault · healthy</text>
<rect x="248" y="12" width="620" height="40" rx="9" fill="#fff" stroke="#d7deea"/><text x="266" y="38" class="m" font-size="14">Search people, notes and events…</text><rect x="1020" y="12" width="152" height="40" rx="9" fill="#3157c8"/><text x="1096" y="38" text-anchor="middle" fill="#fff" font-size="14" font-weight="700">New person</text>
<text x="248" y="104" class="h" font-size="30">People</text><text x="248" y="130" class="m" font-size="14">Filter the directory, then open configurable topic packs and source-linked history.</text>
<g><rect class="card" x="248" y="150" width="170" height="42" rx="9"/><text x="262" y="176" class="m" font-size="12">Organization: Acme</text><rect class="card" x="430" y="150" width="178" height="42" rx="9"/><text x="444" y="176" class="m" font-size="12">Cost center: All</text><rect class="card" x="620" y="150" width="178" height="42" rx="9"/><text x="634" y="176" class="m" font-size="12">Status: Active</text></g>
<rect class="card" x="248" y="208" width="600" height="500" rx="12"/><text x="266" y="238" class="h" font-size="19">Directory</text><rect x="264" y="252" width="568" height="34" fill="#f8f9fc"/><text x="278" y="274" class="m" font-size="11" font-weight="700">PERSON</text><text x="446" y="274" class="m" font-size="11" font-weight="700">ORGANIZATION</text><text x="590" y="274" class="m" font-size="11" font-weight="700">RELATIONSHIP</text><text x="706" y="274" class="m" font-size="11" font-weight="700">LAST</text>
<g><circle cx="292" cy="330" r="21" fill="#e7edff"/><text x="292" y="335" text-anchor="middle" font-weight="800" fill="#29449a">AO</text><text x="324" y="318" class="h" font-size="14">Aisling O'Connor</text><text x="324" y="339" class="m small">Executive Assistant</text><text x="446" y="327" class="small">Acme · CC-PEOPLE</text><rect x="590" y="311" width="54" height="24" rx="12" fill="#fde8ed"/><text x="617" y="328" text-anchor="middle" fill="#a21d36" class="badge">VIP</text><text x="706" y="327" class="small">15 Jun · email</text><rect x="706" y="345" width="72" height="22" rx="11" fill="#e5f7ef"/><text x="742" y="361" text-anchor="middle" fill="#086b49" class="badge">Verified</text><line x1="264" y1="380" x2="832" y2="380" stroke="#d7deea"/></g>
<g><circle cx="292" cy="422" r="21" fill="#e7edff"/><text x="292" y="427" text-anchor="middle" font-weight="800" fill="#29449a">RP</text><text x="324" y="410" class="h" font-size="14">Ravi Patel</text><text x="324" y="431" class="m small">Platform Engineer</text><text x="446" y="419" class="small">Acme · CC-ENG</text><rect x="590" y="403" width="72" height="24" rx="12" fill="#e5f7ef"/><text x="626" y="420" text-anchor="middle" fill="#086b49" class="badge">Maintain</text><text x="706" y="419" class="small">14 Jul · event</text><rect x="706" y="437" width="84" height="22" rx="11" fill="#fff0d7"/><text x="748" y="453" text-anchor="middle" fill="#8a4b00" class="badge">Review due</text><line x1="264" y1="472" x2="832" y2="472" stroke="#d7deea"/></g>
<g><circle cx="292" cy="514" r="21" fill="#e7edff"/><text x="292" y="519" text-anchor="middle" font-weight="800" fill="#29449a">LM</text><text x="324" y="502" class="h" font-size="14">Leah Murphy</text><text x="324" y="523" class="m small">Facilities Partner</text><text x="446" y="511" class="small">Acme · CC-OPS</text><rect x="590" y="495" width="64" height="24" rx="12" fill="#edf0f5"/><text x="622" y="512" text-anchor="middle" fill="#465266" class="badge">Normal</text><text x="706" y="511" class="small">12 Jul · note</text><rect x="706" y="529" width="108" height="22" rx="11" fill="#e5f7ef"/><text x="760" y="545" text-anchor="middle" fill="#086b49" class="badge">No restrictions</text></g>
<rect class="card" x="866" y="208" width="306" height="500" rx="12"/><circle cx="910" cy="254" r="30" fill="#e7edff"/><text x="910" y="259" text-anchor="middle" font-weight="800" fill="#29449a">AO</text><text x="950" y="245" class="h" font-size="20">Aisling O'Connor</text><text x="950" y="266" class="m small">Executive Assistant · Acme</text>
<text x="884" y="310" fill="#3157c8" font-weight="800" font-size="13">Overview</text><text x="960" y="310" class="m" font-size="13">Notes</text><text x="1010" y="310" class="m" font-size="13">Timeline</text><text x="1074" y="310" class="m" font-size="13">Relations</text><line x1="884" y1="322" x2="1148" y2="322" stroke="#d7deea"/><line x1="884" y1="321" x2="944" y2="321" stroke="#3157c8" stroke-width="3"/>
<rect x="884" y="342" width="264" height="106" rx="8" fill="#fde8ed"/><text x="898" y="369" class="h" font-size="13">Sensitive field</text><text x="898" y="393" font-size="12">Dietary detail is role restricted.</text><text x="898" y="414" font-size="12">Catering export uses operational</text><text x="898" y="435" font-size="12">meal instructions only.</text>
<text x="884" y="486" class="m small" font-weight="700">LAST INTERACTION</text><text x="884" y="510" font-size="13">15 June 2026 · email</text><text x="884" y="552" class="m small" font-weight="700">IMPORTANT CHARACTERISTIC</text><text x="884" y="576" font-size="13">Prefers written briefing before</text><text x="884" y="597" font-size="13">scheduling changes</text><text x="884" y="638" class="m small" font-weight="700">PROFILE READINESS</text><rect x="884" y="650" width="264" height="8" rx="4" fill="#e7ebf2"/><rect x="884" y="650" width="232" height="8" rx="4" fill="#3157c8"/><text x="884" y="680" class="m small">Meeting brief ready · travel needs review</text>
</svg>
