<svg xmlns="http://www.w3.org/2000/svg" width="1200" height="800" viewBox="0 0 1200 800" role="img" aria-labelledby="title desc">
<title id="title">Purpose-specific profile readiness</title>
<desc id="desc">Desktop person profile showing enabled Topic Packs and separate readiness results for contact, meeting, travel, event catering, and birthday purposes.</desc>
<style>text{font-family:Inter,Segoe UI,Arial,sans-serif}.h{fill:#172033;font-weight:800}.m{fill:#5d687b}.card{fill:#fff;stroke:#d7deea}.nav{fill:#17233d}.pill{font-size:12px;font-weight:700}</style>
<rect width="1200" height="800" fill="#f4f6fb"/><rect class="nav" width="220" height="800"/><rect x="220" width="980" height="64" fill="#fff" stroke="#d7deea"/>
<rect x="18" y="16" width="38" height="38" rx="10" fill="#dfe7ff"/><text x="37" y="41" text-anchor="middle" font-weight="800" fill="#243f92">LR</text><text x="68" y="34" font-size="17" font-weight="800" fill="#fff">Liaison RM</text><text x="68" y="51" font-size="12" fill="#c7d2ed">Identity and Profiles</text>
<text x="34" y="116" fill="#fff">Today</text><rect x="14" y="138" width="192" height="42" rx="8" fill="#344a7a"/><rect x="14" y="138" width="4" height="42" rx="2" fill="#a9bcff"/><text x="34" y="165" fill="#fff" font-weight="700">People</text><text x="34" y="215" fill="#fff">Organizations</text><text x="34" y="265" fill="#fff">Topic Packs</text><text x="34" y="315" fill="#fff">Missing information</text>
<text x="248" y="104" class="h" font-size="30">Alex Murphy</text><text x="248" y="132" class="m" font-size="14">Executive Assistant · Electric Town · Dublin</text><rect x="1028" y="90" width="144" height="42" rx="8" fill="#3157c8"/><text x="1100" y="116" text-anchor="middle" fill="#fff" font-size="13" font-weight="700">Edit profile layout</text>
<rect class="card" x="248" y="156" width="390" height="552" rx="12"/><text x="268" y="188" class="h" font-size="20">Enabled Topic Packs</text>
<rect x="268" y="210" width="350" height="58" rx="9" fill="#e7edff"/><text x="286" y="235" class="h" font-size="15">Identity and communication</text><text x="286" y="255" class="m" font-size="12">Preferred name, language, time zone, channels</text>
<rect x="268" y="282" width="350" height="58" rx="9" fill="#fff" stroke="#d7deea"/><text x="286" y="307" class="h" font-size="15">Professional</text><text x="286" y="327" class="m" font-size="12">Role, expertise, projects, introductions</text>
<rect x="268" y="354" width="350" height="58" rx="9" fill="#fff" stroke="#d7deea"/><text x="286" y="379" class="h" font-size="15">Travel</text><text x="286" y="399" class="m" font-size="12">Airport, seat, hotel, pace, accessibility</text><rect x="542" y="369" width="58" height="24" rx="12" fill="#fff0d7"/><text x="571" y="386" text-anchor="middle" fill="#8a4b00" class="pill">2 gaps</text>
<rect x="268" y="426" width="350" height="58" rx="9" fill="#fff" stroke="#d7deea"/><text x="286" y="451" class="h" font-size="15">Food and hospitality</text><text x="286" y="471" class="m" font-size="12">Operational instruction stored separately</text><rect x="522" y="441" width="78" height="24" rx="12" fill="#e5f7ef"/><text x="561" y="458" text-anchor="middle" fill="#086b49" class="pill">Verified</text>
<rect x="268" y="498" width="350" height="58" rx="9" fill="#fff" stroke="#d7deea"/><text x="286" y="523" class="h" font-size="15">Favorites and gifts</text><text x="286" y="543" class="m" font-size="12">Books, gift ideas, things to avoid</text><rect x="524" y="513" width="76" height="24" rx="12" fill="#edf0f5"/><text x="562" y="530" text-anchor="middle" fill="#465266" class="pill">Unknown</text>
<rect x="268" y="582" width="166" height="42" rx="8" fill="#3157c8"/><text x="351" y="608" text-anchor="middle" fill="#fff" font-size="13" font-weight="700">Add Topic Pack</text><rect x="446" y="582" width="172" height="42" rx="8" fill="#fff" stroke="#aeb9ca"/><text x="532" y="608" text-anchor="middle" class="h" font-size="13">Configure fields</text>
<text x="268" y="660" class="m" font-size="12">Unused packs do not make this profile incomplete.</text>
<rect class="card" x="658" y="156" width="514" height="552" rx="12"/><text x="680" y="188" class="h" font-size="20">Ready for a purpose</text><text x="680" y="212" class="m" font-size="13">Each result uses named fields and a versioned purpose definition.</text>
<rect x="680" y="238" width="470" height="68" rx="9" fill="#e5f7ef"/><text x="698" y="264" class="h" font-size="15">Basic contact</text><text x="1126" y="264" text-anchor="end" fill="#086b49" font-size="14" font-weight="800">Ready</text><text x="698" y="286" class="m" font-size="12">Name, primary channel, preferred contact time</text>
<rect x="680" y="320" width="470" height="68" rx="9" fill="#fff0d7"/><text x="698" y="346" class="h" font-size="15">Meeting briefing</text><text x="1126" y="346" text-anchor="end" fill="#8a4b00" font-size="14" font-weight="800">1 gap</text><text x="698" y="368" class="m" font-size="12">Current role has not been verified for 14 months</text>
<rect x="680" y="402" width="470" height="84" rx="9" fill="#fde8ed"/><text x="698" y="428" class="h" font-size="15">Executive travel brief</text><text x="1126" y="428" text-anchor="end" fill="#a21d36" font-size="14" font-weight="800">2 missing</text><text x="698" y="452" class="m" font-size="12">Seat preference · Hotel preferences</text><text x="698" y="472" fill="#a21d36" font-size="12">Ask later · Mark not applicable · Request from Alex</text>
<rect x="680" y="500" width="470" height="68" rx="9" fill="#e5f7ef"/><text x="698" y="526" class="h" font-size="15">Event catering</text><text x="1126" y="526" text-anchor="end" fill="#086b49" font-size="14" font-weight="800">Verified</text><text x="698" y="548" class="m" font-size="12">Least-disclosure operational instruction is current</text>
<rect x="680" y="582" width="470" height="68" rx="9" fill="#edf0f5"/><text x="698" y="608" class="h" font-size="15">Birthday preparation</text><text x="1126" y="608" text-anchor="end" fill="#465266" font-size="14" font-weight="800">Optional gap</text><text x="698" y="630" class="m" font-size="12">No gift ideas recorded; birthday date is verified</text>
<rect x="680" y="664" width="210" height="28" rx="14" fill="#e7edff"/><text x="785" y="683" text-anchor="middle" fill="#243f92" class="pill">No universal completeness score</text>
</svg>
